<svg xmlns="http://www.w3.org/2000/svg" viewBox="0 0 574.01 87.41"><path d="M312.9 26.45h22.68v6.49h-14.94v6.86h12.69v6.49h-12.69v7.87h15.46v6.5h-23.2zm30.34 0h9.45c9.92 0 16.45 5.19 16.45 17s-6.53 17.26-16 17.26h-9.89zm9 28c5.32 0 8.94-2.84 8.94-11s-3.62-10.71-8.94-10.71H351v21.68zm22.15-6.96v-21h7.76v21.78c0 4.1 1.5 6.33 4.73 6.33s4.83-2.23 4.83-6.33V26.45h7.47v21c0 8.88-4 13.8-12.3 13.8s-12.49-4.88-12.49-13.76zm30.98-3.75c0-11.34 7.18-17.92 16.34-17.92a14.68 14.68 0 0110.21 4.35L427.66 35a8.38 8.38 0 00-6-2.45c-4.85 0-8.4 4.12-8.4 11 0 7 3.55 11.11 8.71 11.11a8.3 8.3 0 006.16-3l4.26 4.68a14.13 14.13 0 01-11.22 5c-8.46-.05-15.8-6.06-15.8-17.6zm39.76-17.29h9.28l10.65 34.21h-8.21l-4.41-17.32c-.87-3.42-1.91-7.42-2.73-11h-.21c-.84 3.61-1.79 7.61-2.66 11l-4.44 17.32h-7.93zm-3.61 20h16.37v6h-16.37zm35.87-13.51h-10.26v-6.49h28.25v6.49h-10.25v27.72h-7.74zm39.09 10.46c0-11.44 5.61-17.58 13.76-17.58S544 32 544 43.4c0 11.7-5.61 17.89-13.76 17.89s-13.76-6.19-13.76-17.89zm19.58 0c0-7.11-2.25-10.89-5.82-10.89s-5.82 3.78-5.82 10.89c0 7.37 2.25 11.2 5.82 11.2s5.82-3.83 5.82-11.2zm13.4-16.95h7.93l7.2 17 2.93 7.55h.18c-.35-3.6-1.07-8.39-1.07-12.43V26.45H574v34.21h-7.94l-7.19-17-2.87-7.53h-.18c.34 3.79 1.07 8.37 1.07 12.39v12.14h-7.38zM509.13 60h-7.68V26.11h7.67V60z"/><path d="M63.7 43.7a17.32 17.32 0 01-34.64.45v-.89a17.32 17.32 0 0134.64.44zM49.31 83.29L72.9 69.67 49.31 83.29z" fill="none"/><path d="M78.05 29.71l-24.5-14.15-4.09 2.37-3.08 1.77-17.32 10v13.56a17.32 17.32 0 0134.64.44V58L46.38 68l-2.67 1.54-4.5 2.6L14.71 58V27.58A11 11 0 0120.23 18L46.4 2.73l2.6-1.5A9.2 9.2 0 0153.55 0H39.21a9.2 9.2 0 00-4.6 1.23L5.51 18A11 11 0 000 27.58v32.54a11.06 11.06 0 005.52 9.55l28.17 16.27a11.08 11.08 0 0011 0l1.66-1 2.93-1.69L72.9 69.67a11.08 11.08 0 005.52-9.55v-30.2z"/><path d="M87.24 18L58.15 1.23A9.16 9.16 0 0053.73 0h-.18A9.2 9.2 0 0049 1.23l-2.62 1.49L20.23 18a11 11 0 00-5.52 9.55V58l24.5 14.14 4.5-2.6L46.38 68 63.7 58V43.7a17.32 17.32 0 01-34.64.45V29.71l17.32-10 3.08-1.77 4.09-2.37 24.5 14.15.37.21v30.2a11.08 11.08 0 01-5.52 9.55L49.31 83.29 46.38 85l-1.66 1a11 11 0 01-5.51 1.47h14.52a11.15 11.15 0 005.34-1.46l28.17-16.34a11.08 11.08 0 005.52-9.55V27.58A11.06 11.06 0 0087.24 18z" fill="#4ebbe6"/><path d="M120.24 43.89c0-11.22 7.1-17.74 16.18-17.74a14.52 14.52 0 0110.1 4.31l-4.22 4.74a8.25 8.25 0 00-5.88-2.43c-4.81 0-8.32 4.09-8.32 10.87 0 7 3.51 11 8.62 11a8.23 8.23 0 006.1-3l4.18 4.64a14 14 0 01-11.1 5c-8.39-.02-15.66-5.97-15.66-17.39zm41.89 16.74h-7.67V26.78h7.67v33.85zm10.07-33.85h12c7.17 0 13.07 2.49 13.07 10.54 0 7.79-5.9 11.13-13.07 11.13h-4.36v12.18h-7.64zm11.41 15.59c4 0 6.19-1.73 6.19-5s-2.16-4.46-6.19-4.46h-3.73v9.51zm4.52-.85l10.81 19.11h-8.58l-7.53-14.2zm15.75 2.37c0-11.22 7.1-17.74 16.17-17.74a14.52 14.52 0 0110.1 4.31l-4.21 4.74a8.26 8.26 0 00-5.89-2.43c-4.81 0-8.32 4.09-8.32 10.87 0 7 3.51 11 8.62 11a8.22 8.22 0 006.1-3l4.22 4.63a14 14 0 01-11.11 5c-8.42-.01-15.68-5.96-15.68-17.38zm35.19-17.11h7.65v27.43h15.07v6.42h-22.72zm29.13 0h22.45v6.42h-14.78V40h12.55v6.43h-12.55v7.79h15.3v6.42h-23z"/></svg>