<svg data-name="Layer 1" xmlns="http://www.w3.org/2000/svg" viewBox="0 0 216 216"><path d="M134.29 108a26.29 26.29 0 11-52.58.68v-1.35a26.29 26.29 0 1152.58.67zm-21.84 10.34l35.8-20.68-35.8 20.68z" fill="none"/><path d="M156.07 86.77l-37.19-21.48-6.21 3.6-4.67 2.68-26.29 15.18v20.58a26.29 26.29 0 0152.58.67v21.7L108 144.88l-4 2.34-6.83 3.94-37.24-21.46V83.53A16.71 16.71 0 0168.31 69L108 45.82h0l4-2.28a14 14 0 016.9-1.87H97.12a14 14 0 00-7 1.87L46 69a16.69 16.69 0 00-8.36 14.54v49.39A16.8 16.8 0 0046 147.42l42.76 24.69a16.81 16.81 0 0016.7 0l2.51-1.52 4.43-2.59 35.85-20.61a16.83 16.83 0 008.38-14.5V87.08z" stroke="#22366a" stroke-miterlimit="10" stroke-width="3" fill="#22366a"/><path d="M170 68.94l-44.14-25.45a13.87 13.87 0 00-6.7-1.87h-.28a14 14 0 00-6.9 1.87l-4 2.26h0L68.31 68.94a16.7 16.7 0 00-8.38 14.49v46.22l37.19 21.46 6.83-3.94 4-2.34 26.29-15.18V108a26.29 26.29 0 11-52.58.68V86.71L108 71.54l4.67-2.69 6.21-3.6 37.19 21.48.56.32v45.83a16.83 16.83 0 01-8.38 14.5L112.45 168l-4.45 2.63-2.52 1.52a16.8 16.8 0 01-8.36 2.23h22a17 17 0 008.1-2.22l42.78-24.8a16.78 16.78 0 008.37-14.49V83.48A16.79 16.79 0 00170 68.94z" stroke="#22366a" stroke-miterlimit="10" stroke-width="3" fill="none"/></svg>