<?xml version="1.0" encoding="utf-8"?>
<!-- Generator: Adobe Illustrator 23.0.6, SVG Export Plug-In . SVG Version: 6.00 Build 0)  -->
<svg version="1.1" id="Layer_1" xmlns="http://www.w3.org/2000/svg" xmlns:xlink="http://www.w3.org/1999/xlink" x="0px" y="0px"
	 viewBox="0 0 574 87.4" style="enable-background:new 0 0 574 87.4;" xml:space="preserve">
<style type="text/css">
	.st0{fill:#FFFFFF;}
	.st1{fill:none;}
	.st2{fill:#4EBBE6;}
	.st3{fill:#652D90;}
</style>
<title>Artboard 210</title>
<g id="LiveLogo_2_">
	<path class="st0" d="M312.9,26.5h22.7v6.5h-14.9v6.9h12.7v6.5h-12.7v7.9h15.5v6.5h-23.2V26.5z"/>
	<path class="st0" d="M343.2,26.5h9.5c9.9,0,16.5,5.2,16.5,17s-6.5,17.3-16,17.3h-9.9L343.2,26.5z M352.2,54.5c5.3,0,8.9-2.8,8.9-11
		s-3.6-10.7-8.9-10.7H351v21.7L352.2,54.5z"/>
	<path class="st0" d="M374.4,47.5v-21h7.8v21.8c0,4.1,1.5,6.3,4.7,6.3s4.8-2.2,4.8-6.3V26.5h7.5v21c0,8.9-4,13.8-12.3,13.8
		S374.4,56.4,374.4,47.5z"/>
	<path class="st0" d="M405.4,43.7c0-11.3,7.2-17.9,16.3-17.9c3.8,0.1,7.5,1.6,10.2,4.4l-4.3,4.8c-1.6-1.6-3.8-2.5-6-2.5
		c-4.9,0-8.4,4.1-8.4,11c0,7,3.5,11.1,8.7,11.1c2.4-0.1,4.6-1.2,6.2-3l4.3,4.7c-2.8,3.3-6.9,5.1-11.2,5
		C412.7,61.3,405.4,55.3,405.4,43.7z"/>
	<path class="st0" d="M445.1,26.5h9.3l10.6,34.2h-8.2l-4.4-17.3c-0.9-3.4-1.9-7.4-2.7-11h-0.2c-0.8,3.6-1.8,7.6-2.7,11l-4.4,17.3
		h-7.9L445.1,26.5z M441.5,46.5h16.4v6h-16.4L441.5,46.5z"/>
	<path class="st0" d="M477.4,32.9h-10.3v-6.5h28.2v6.5h-10.2v27.7h-7.7V32.9z"/>
	<path class="st0" d="M516.5,43.4c0-11.4,5.6-17.6,13.8-17.6S544,32,544,43.4c0,11.7-5.6,17.9-13.8,17.9S516.5,55.1,516.5,43.4z
		 M536.1,43.4c0-7.1-2.2-10.9-5.8-10.9s-5.8,3.8-5.8,10.9c0,7.4,2.2,11.2,5.8,11.2S536.1,50.8,536.1,43.4z"/>
	<path class="st0" d="M549.5,26.5h7.9l7.2,17l2.9,7.5h0.2c-0.3-3.6-1.1-8.4-1.1-12.4V26.5h7.4v34.2h-7.9l-7.2-17l-2.9-7.5h-0.2
		c0.3,3.8,1.1,8.4,1.1,12.4v12.1h-7.4L549.5,26.5z"/>
	<path class="st0" d="M509.1,60h-7.7v-6.4V26.1h7.7L509.1,60L509.1,60z"/>
	<path class="st1" d="M63.7,43.7c0.1,9.6-7.5,17.4-17.1,17.5c-9.6,0.1-17.4-7.5-17.5-17.1v-0.9c0.1-9.6,8-17.2,17.5-17.1
		C56.2,26.3,63.8,34.1,63.7,43.7z"/>
	<polygon class="st1" points="49.3,83.3 72.9,69.7 49.3,83.3 	"/>
	<path class="st0" d="M78.1,29.7L53.5,15.6l-4.1,2.4l-3.1,1.8l-17.3,10v13.6c0.1-9.6,8-17.2,17.5-17.1c9.6,0.1,17.2,8,17.1,17.5V58
		L46.4,68l-2.7,1.5l-4.5,2.6L14.7,58V27.6c0-4,2.1-7.6,5.5-9.6L46.4,2.7l0,0L49,1.2C50.4,0.4,52,0,53.5,0H39.2
		c-1.6,0-3.2,0.4-4.6,1.2L5.5,18C2.1,20,0,23.6,0,27.6v32.5c0,3.9,2.1,7.6,5.5,9.5l28.2,16.3c3.4,1.9,7.6,1.9,11,0l1.7-1l2.9-1.7
		l23.6-13.6c3.4-2,5.5-5.6,5.5-9.5V29.9L78.1,29.7z"/>
	<path class="st2" d="M87.2,18L58.2,1.2C56.8,0.5,55.3,0,53.7,0h-0.2C52,0,50.4,0.4,49,1.2l-2.6,1.5l0,0L20.2,18
		c-3.4,2-5.5,5.6-5.5,9.5V58l24.5,14.1l4.5-2.6l2.7-1.5l17.3-10V43.7c0.1,9.6-7.5,17.4-17.1,17.5c-9.6,0.1-17.4-7.5-17.5-17.1V29.7
		l17.3-10l3.1-1.8l4.1-2.4l24.5,14.1l0.4,0.2v30.2c0,3.9-2.1,7.6-5.5,9.6L49.3,83.3L46.4,85l-1.7,1c-1.7,1-3.6,1.5-5.5,1.5h14.5
		c1.9,0,3.7-0.5,5.3-1.5l28.2-16.3c3.4-2,5.5-5.6,5.5-9.5V27.6C92.8,23.6,90.7,20,87.2,18z"/>
	<path class="st3" d="M54,43.7L54,43.7z"/>
	<path class="st0" d="M120.2,43.9c0-11.2,7.1-17.7,16.2-17.7c3.8,0.1,7.4,1.6,10.1,4.3l-4.2,4.7c-1.6-1.6-3.7-2.4-5.9-2.4
		c-4.8,0-8.3,4.1-8.3,10.9c0,7,3.5,11,8.6,11c2.4-0.1,4.6-1.2,6.1-3l4.2,4.6c-2.7,3.3-6.8,5.1-11.1,5
		C127.5,61.3,120.2,55.3,120.2,43.9z"/>
	<path class="st0" d="M162.1,60.6h-7.7V26.8h7.7V60.6z"/>
	<path class="st0" d="M172.2,26.8h12c7.2,0,13.1,2.5,13.1,10.5c0,7.8-5.9,11.1-13.1,11.1h-4.4v12.2h-7.6V26.8z M183.6,42.4
		c4,0,6.2-1.7,6.2-5s-2.2-4.5-6.2-4.5h-3.7v9.5L183.6,42.4z M188.1,41.5l10.8,19.1h-8.6l-7.5-14.2L188.1,41.5z"/>
	<path class="st0" d="M203.9,43.9c0-11.2,7.1-17.7,16.2-17.7c3.8,0.1,7.4,1.6,10.1,4.3l-4.2,4.7c-1.6-1.6-3.7-2.4-5.9-2.4
		c-4.8,0-8.3,4.1-8.3,10.9c0,7,3.5,11,8.6,11c2.4-0.1,4.6-1.2,6.1-3l4.2,4.6c-2.7,3.3-6.8,5.1-11.1,5
		C211.1,61.3,203.9,55.3,203.9,43.9z"/>
	<path class="st0" d="M239.1,26.8h7.6v27.4h15.1v6.4h-22.7V26.8z"/>
	<path class="st0" d="M268.2,26.8h22.5v6.4h-14.8V40h12.5v6.4h-12.5v7.8h15.3v6.4h-23L268.2,26.8z"/>
</g>
</svg>
