<svg xmlns="http://www.w3.org/2000/svg" viewBox="0 0 574.01 87.41"><defs><style>.cls-1{fill:none;}.cls-2{fill:#4ebbe6;}.cls-3{fill:#652d90;}</style></defs><title>Artboard 210</title><g id="LiveLogo"><path d="M312.9,26.45h22.68v6.49H320.64V39.8h12.69v6.49H320.64v7.87H336.1v6.5H312.9Z"/><path d="M343.24,26.45h9.45c9.92,0,16.45,5.19,16.45,17s-6.53,17.26-16,17.26h-9.89Zm9,28c5.32,0,8.94-2.84,8.94-11s-3.62-10.71-8.94-10.71H351V54.42Z"/><path d="M374.39,47.49v-21h7.76V48.27c0,4.1,1.5,6.33,4.73,6.33s4.83-2.23,4.83-6.33V26.45h7.47v21c0,8.88-4,13.8-12.3,13.8S374.39,56.37,374.39,47.49Z"/><path d="M405.37,43.74c0-11.34,7.18-17.92,16.34-17.92a14.68,14.68,0,0,1,10.21,4.35L427.66,35a8.38,8.38,0,0,0-6-2.45c-4.85,0-8.4,4.12-8.4,11,0,7,3.55,11.11,8.71,11.11a8.3,8.3,0,0,0,6.16-3l4.26,4.68a14.13,14.13,0,0,1-11.22,5C412.71,61.29,405.37,55.28,405.37,43.74Z"/><path d="M445.13,26.45h9.28l10.65,34.21h-8.21l-4.41-17.32c-.87-3.42-1.91-7.42-2.73-11h-.21c-.84,3.61-1.79,7.61-2.66,11L442.4,60.66h-7.93Zm-3.61,20h16.37v6H441.52Z"/><path d="M477.39,32.94H467.13V26.45h28.25v6.49H485.13V60.66h-7.74Z"/><path d="M516.48,43.4c0-11.44,5.61-17.58,13.76-17.58S544,32,544,43.4c0,11.7-5.61,17.89-13.76,17.89S516.48,55.1,516.48,43.4Zm19.58,0c0-7.11-2.25-10.89-5.82-10.89s-5.82,3.78-5.82,10.89c0,7.37,2.25,11.2,5.82,11.2S536.06,50.77,536.06,43.4Z"/><path d="M549.46,26.45h7.93l7.2,17L567.52,51h.18c-.35-3.6-1.07-8.39-1.07-12.43V26.45H574V60.66h-7.94l-7.19-17L556,36.13h-.18c.34,3.79,1.07,8.37,1.07,12.39V60.66h-7.38Z"/><path d="M509.13,60h-7.68l0-6.43V26.11h7.67V60Z"/><path class="cls-1" d="M63.7,43.7a17.32,17.32,0,0,1-34.64.45v-.89a17.32,17.32,0,0,1,34.64.44Z"/><polygon class="cls-1" points="49.31 83.29 72.9 69.67 49.31 83.29 49.31 83.29"/><path d="M78.05,29.71,53.55,15.56l-4.09,2.37L46.38,19.7l-17.32,10V43.26a17.32,17.32,0,0,1,34.64.44V58L46.38,68l-2.67,1.54-4.5,2.6L14.71,58V27.58A11,11,0,0,1,20.23,18L46.4,2.73h0L49,1.23A9.2,9.2,0,0,1,53.55,0H39.21a9.2,9.2,0,0,0-4.6,1.23L5.51,18A11,11,0,0,0,0,27.58V60.12a11.06,11.06,0,0,0,5.52,9.55L33.69,85.94a11.08,11.08,0,0,0,11,0l1.66-1,2.93-1.69L72.9,69.67a11.08,11.08,0,0,0,5.52-9.55V29.92Z"/><path class="cls-2" d="M87.24,18,58.15,1.23A9.16,9.16,0,0,0,53.73,0h-.18A9.2,9.2,0,0,0,49,1.23L46.38,2.72h0L20.23,18a11,11,0,0,0-5.52,9.55V58l24.5,14.14,4.5-2.6L46.38,68,63.7,58V43.7a17.32,17.32,0,0,1-34.64.45V29.71l17.32-10,3.08-1.77,4.09-2.37,24.5,14.15.37.21v30.2a11.08,11.08,0,0,1-5.52,9.55L49.31,83.29,46.38,85l-1.66,1a11,11,0,0,1-5.51,1.47H53.73a11.15,11.15,0,0,0,5.34-1.46L87.24,69.67a11.08,11.08,0,0,0,5.52-9.55V27.58A11.06,11.06,0,0,0,87.24,18Z"/><path class="cls-3" d="M54,43.7h0Z"/><path d="M120.24,43.89c0-11.22,7.1-17.74,16.18-17.74a14.52,14.52,0,0,1,10.1,4.31L142.3,35.2a8.25,8.25,0,0,0-5.88-2.43c-4.81,0-8.32,4.09-8.32,10.87,0,7,3.51,11,8.62,11a8.23,8.23,0,0,0,6.1-3L147,56.28a14,14,0,0,1-11.1,5C127.51,61.26,120.24,55.31,120.24,43.89Z"/><path d="M162.13,60.63h-7.67V26.78h7.67V60.63Z"/><path d="M172.2,26.78h12c7.17,0,13.07,2.49,13.07,10.54,0,7.79-5.9,11.13-13.07,11.13h-4.36V60.63H172.2Zm11.41,15.59c4,0,6.19-1.73,6.19-5s-2.16-4.46-6.19-4.46h-3.73v9.51Zm4.52-.85,10.81,19.11h-8.58l-7.53-14.2Z"/><path d="M203.88,43.89c0-11.22,7.1-17.74,16.17-17.74a14.52,14.52,0,0,1,10.1,4.31l-4.21,4.74a8.26,8.26,0,0,0-5.89-2.43c-4.81,0-8.32,4.09-8.32,10.87,0,7,3.51,11,8.62,11a8.22,8.22,0,0,0,6.1-3l4.22,4.63a14,14,0,0,1-11.11,5C211.14,61.26,203.88,55.31,203.88,43.89Z"/><path d="M239.07,26.78h7.65V54.21h15.07v6.42H239.07Z"/><path d="M268.2,26.78h22.45V33.2H275.87V40h12.55v6.43H275.87v7.79h15.3v6.42h-23Z"/></g></svg>