<svg version="1.1" id="Layer_1" xmlns="http://www.w3.org/2000/svg" x="0" y="0" viewBox="0 0 574 87.4" xml:space="preserve"><style>.st0{fill:#fff}</style><g id="LiveLogo_2_"><path class="st0" d="M312.9 26.5h22.7V33h-14.9v6.9h12.7v6.5h-12.7v7.9h15.5v6.5H313V26.5zm30.3 0h9.5c9.9 0 16.5 5.2 16.5 17s-6.5 17.3-16 17.3h-9.9l-.1-34.3zm9 28c5.3 0 8.9-2.8 8.9-11s-3.6-10.7-8.9-10.7H351v21.7h1.2zm22.2-7v-21h7.8v21.8c0 4.1 1.5 6.3 4.7 6.3s4.8-2.2 4.8-6.3V26.5h7.5v21c0 8.9-4 13.8-12.3 13.8s-12.5-4.9-12.5-13.8zm31-3.8c0-11.3 7.2-17.9 16.3-17.9 3.8.1 7.5 1.6 10.2 4.4l-4.3 4.8c-1.6-1.6-3.8-2.5-6-2.5-4.9 0-8.4 4.1-8.4 11 0 7 3.5 11.1 8.7 11.1 2.4-.1 4.6-1.2 6.2-3l4.3 4.7c-2.8 3.3-6.9 5.1-11.2 5-8.5 0-15.8-6-15.8-17.6zm39.7-17.2h9.3L465 60.7h-8.2l-4.4-17.3c-.9-3.4-1.9-7.4-2.7-11h-.2c-.8 3.6-1.8 7.6-2.7 11l-4.4 17.3h-7.9l10.6-34.2zm-3.6 20h16.4v6h-16.4v-6zm35.9-13.6h-10.3v-6.5h28.2v6.5h-10.2v27.7h-7.7V32.9zm39.1 10.5c0-11.4 5.6-17.6 13.8-17.6S544 32 544 43.4c0 11.7-5.6 17.9-13.8 17.9s-13.7-6.2-13.7-17.9zm19.6 0c0-7.1-2.2-10.9-5.8-10.9s-5.8 3.8-5.8 10.9c0 7.4 2.2 11.2 5.8 11.2s5.8-3.8 5.8-11.2zm13.4-16.9h7.9l7.2 17 2.9 7.5h.2c-.3-3.6-1.1-8.4-1.1-12.4V26.5h7.4v34.2h-7.9l-7.2-17-2.9-7.5h-.2c.3 3.8 1.1 8.4 1.1 12.4v12.1h-7.4V26.5zM509.1 60h-7.7V26.1h7.7V60z"/><path d="M63.7 43.7c.1 9.6-7.5 17.4-17.1 17.5-9.6.1-17.4-7.5-17.5-17.1v-.9c.1-9.6 8-17.2 17.5-17.1 9.6.2 17.2 8 17.1 17.6zM49.3 83.3l23.6-13.6-23.6 13.6z" fill="none"/><path class="st0" d="M78.1 29.7L53.5 15.6 49.4 18l-3.1 1.8-17.3 10v13.6c.1-9.6 8-17.2 17.5-17.1 9.6.1 17.2 8 17.1 17.5V58L46.4 68l-2.7 1.5-4.5 2.6L14.7 58V27.6c0-4 2.1-7.6 5.5-9.6L46.4 2.7 49 1.2C50.4.4 52 0 53.5 0H39.2c-1.6 0-3.2.4-4.6 1.2L5.5 18C2.1 20 0 23.6 0 27.6v32.5c0 3.9 2.1 7.6 5.5 9.5l28.2 16.3c3.4 1.9 7.6 1.9 11 0l1.7-1 2.9-1.7 23.6-13.6c3.4-2 5.5-5.6 5.5-9.5V29.9l-.3-.2z"/><path d="M87.2 18l-29-16.8C56.8.5 55.3 0 53.7 0h-.2C52 0 50.4.4 49 1.2l-2.6 1.5L20.2 18c-3.4 2-5.5 5.6-5.5 9.5V58l24.5 14.1 4.5-2.6 2.7-1.5 17.3-10V43.7c.1 9.6-7.5 17.4-17.1 17.5-9.6.1-17.4-7.5-17.5-17.1V29.7l17.3-10 3.1-1.8 4.1-2.4 24.5 14.1.4.2V60c0 3.9-2.1 7.6-5.5 9.6L49.3 83.3 46.4 85l-1.7 1c-1.7 1-3.6 1.5-5.5 1.5h14.5c1.9 0 3.7-.5 5.3-1.5l28.2-16.3c3.4-2 5.5-5.6 5.5-9.5V27.6c.1-4-2-7.6-5.5-9.6z" fill="#4ebbe6"/><path class="st0" d="M120.2 43.9c0-11.2 7.1-17.7 16.2-17.7 3.8.1 7.4 1.6 10.1 4.3l-4.2 4.7c-1.6-1.6-3.7-2.4-5.9-2.4-4.8 0-8.3 4.1-8.3 10.9 0 7 3.5 11 8.6 11 2.4-.1 4.6-1.2 6.1-3l4.2 4.6c-2.7 3.3-6.8 5.1-11.1 5-8.4 0-15.7-6-15.7-17.4zm41.9 16.7h-7.7V26.8h7.7v33.8zm10.1-33.8h12c7.2 0 13.1 2.5 13.1 10.5 0 7.8-5.9 11.1-13.1 11.1h-4.4v12.2h-7.6V26.8zm11.4 15.6c4 0 6.2-1.7 6.2-5s-2.2-4.5-6.2-4.5h-3.7v9.5h3.7zm4.5-.9l10.8 19.1h-8.6l-7.5-14.2 5.3-4.9zm15.8 2.4c0-11.2 7.1-17.7 16.2-17.7 3.8.1 7.4 1.6 10.1 4.3l-4.2 4.7c-1.6-1.6-3.7-2.4-5.9-2.4-4.8 0-8.3 4.1-8.3 10.9 0 7 3.5 11 8.6 11 2.4-.1 4.6-1.2 6.1-3l4.2 4.6c-2.7 3.3-6.8 5.1-11.1 5-8.5 0-15.7-6-15.7-17.4zm35.2-17.1h7.6v27.4h15.1v6.4h-22.7V26.8zm29.1 0h22.5v6.4h-14.8V40h12.5v6.4h-12.5v7.8h15.3v6.4h-23V26.8z"/></g></svg>