<svg xmlns="http://www.w3.org/2000/svg" viewBox="0 0 92.7 87.4"><path d="M63.7 43.7c.1 9.6-7.5 17.4-17.1 17.5-9.6.1-17.4-7.5-17.6-17.1v-.9c.1-9.6 8-17.2 17.5-17.1 9.7.2 17.3 8 17.2 17.6zM49.3 83.3l23.6-13.7-23.6 13.7z" fill="none"/><path d="M78 29.7L53.5 15.5l-4.1 2.4-3.1 1.8-17.3 10v13.6c.1-9.6 8-17.2 17.5-17.1 9.6.1 17.2 8 17.1 17.5V58L46.4 68l-2.7 1.5-4.5 2.6L14.7 58V27.5c0-4 2.1-7.6 5.5-9.6L46.4 2.7 49 1.2C50.4.4 52 0 53.5 0H39.2c-1.6 0-3.2.4-4.6 1.2L5.5 18C2.1 20 0 23.6 0 27.6v32.5c0 3.9 2.1 7.6 5.5 9.5l28.2 16.3c3.4 1.9 7.6 1.9 11 0l1.7-1 2.9-1.7 23.6-13.6c3.4-2 5.5-5.6 5.5-9.5V29.9l-.4-.2z"/><path d="M87.2 18L58.1 1.2C56.8.4 55.3 0 53.7 0h-.2c-1.6 0-3.2.4-4.5 1.2l-2.6 1.5L20.2 18c-3.4 2-5.5 5.6-5.5 9.5V58l24.5 14.1 4.5-2.6 2.7-1.5 17.3-10V43.7c.1 9.6-7.5 17.4-17.1 17.5-9.6.1-17.4-7.5-17.6-17.1V29.7l17.3-10 3.1-1.8 4.1-2.4L78 29.7l.4.2v30.2c0 3.9-2.1 7.6-5.5 9.5L49.3 83.3 46.4 85l-1.7 1c-1.7 1-3.6 1.5-5.5 1.5h14.5c1.9 0 3.7-.5 5.3-1.5l28.2-16.3c3.4-2 5.5-5.6 5.5-9.5V27.5c.1-3.9-2.1-7.6-5.5-9.5z" fill="#4ebbe6"/></svg>