<svg id="Layer_1" data-name="Layer 1" xmlns="http://www.w3.org/2000/svg" viewBox="0 0 216 216"><defs><style>.cls-1,.cls-3{fill:none;}.cls-2{fill:#22366a;}.cls-2,.cls-3{stroke:#22366a;stroke-miterlimit:10;stroke-width:3px;}</style></defs><title>Artboard 3</title><path class="cls-1" d="M134.29,108a26.29,26.29,0,1,1-52.58.68v-1.35a26.29,26.29,0,1,1,52.58.67Z"/><polygon class="cls-1" points="112.45 118.34 148.25 97.66 112.45 118.34 112.45 118.34"/><path class="cls-2" d="M156.07,86.77,118.88,65.29l-6.21,3.6L108,71.57,81.71,86.75v20.58a26.29,26.29,0,0,1,52.58.67v21.7L108,144.88l-4,2.34-6.83,3.94L59.93,129.7V83.53A16.71,16.71,0,0,1,68.31,69L108,45.82h0l4-2.28a14,14,0,0,1,6.9-1.87H97.12a14,14,0,0,0-7,1.87L46,69a16.69,16.69,0,0,0-8.36,14.54v49.39A16.8,16.8,0,0,0,46,147.42l42.76,24.69a16.81,16.81,0,0,0,16.7,0l2.51-1.52L112.4,168l35.85-20.61a16.83,16.83,0,0,0,8.38-14.5V87.08Z"/><path class="cls-3" d="M170,68.94,125.86,43.49a13.87,13.87,0,0,0-6.7-1.87h-.28a14,14,0,0,0-6.9,1.87l-4,2.26h0L68.31,68.94a16.7,16.7,0,0,0-8.38,14.49v46.22l37.19,21.46,6.83-3.94,4-2.34,26.29-15.18V108a26.29,26.29,0,1,1-52.58.68V86.71L108,71.54l4.67-2.69,6.21-3.6,37.19,21.48.56.32v45.83a16.83,16.83,0,0,1-8.38,14.5L112.45,168,108,170.63l-2.52,1.52a16.8,16.8,0,0,1-8.36,2.23h22a17,17,0,0,0,8.1-2.22L170,147.36a16.78,16.78,0,0,0,8.37-14.49V83.48A16.79,16.79,0,0,0,170,68.94Z"/></svg>