<?xml version="1.0" encoding="utf-8"?>
<!-- Generator: Adobe Illustrator 23.0.6, SVG Export Plug-In . SVG Version: 6.00 Build 0)  -->
<svg version="1.1" id="Layer_1" xmlns="http://www.w3.org/2000/svg" xmlns:xlink="http://www.w3.org/1999/xlink" x="0px" y="0px"
	 viewBox="0 0 92.7 87.4" style="enable-background:new 0 0 92.7 87.4;" xml:space="preserve">
<style type="text/css">
	.st0{fill:none;}
	.st1{fill:#4EBBE6;}
	.st2{fill:#652D90;}
</style>
<title>Artboard 210</title>
<g id="LiveLogo_1_">
	<path class="st0" d="M63.7,43.7c0.1,9.6-7.5,17.4-17.1,17.5C37,61.3,29.2,53.7,29,44.1v-0.9c0.1-9.6,8-17.2,17.5-17.1
		C56.2,26.3,63.8,34.1,63.7,43.7z"/>
	<polygon class="st0" points="49.3,83.3 72.9,69.6 49.3,83.3 	"/>
	<path d="M78,29.7L53.5,15.5l-4.1,2.4l-3.1,1.8L29,29.7v13.6c0.1-9.6,8-17.2,17.5-17.1c9.6,0.1,17.2,8,17.1,17.5V58L46.4,68
		l-2.7,1.5l-4.5,2.6L14.7,58V27.5c0-4,2.1-7.6,5.5-9.6L46.4,2.7l0,0L49,1.2c1.4-0.8,3-1.2,4.5-1.2H39.2c-1.6,0-3.2,0.4-4.6,1.2
		L5.5,18c-3.4,2-5.5,5.6-5.5,9.6v32.5c0,3.9,2.1,7.6,5.5,9.5l28.2,16.3c3.4,1.9,7.6,1.9,11,0l1.7-1l2.9-1.7l23.6-13.6
		c3.4-2,5.5-5.6,5.5-9.5V29.9L78,29.7z"/>
	<path class="st1" d="M87.2,18L58.1,1.2C56.8,0.4,55.3,0,53.7,0h-0.2c-1.6,0-3.2,0.4-4.5,1.2l-2.6,1.5l0,0L20.2,18
		c-3.4,2-5.5,5.6-5.5,9.5V58l24.5,14.1l4.5-2.6l2.7-1.5l17.3-10V43.7c0.1,9.6-7.5,17.4-17.1,17.5C37,61.3,29.2,53.7,29,44.1V29.7
		l17.3-10l3.1-1.8l4.1-2.4L78,29.7l0.4,0.2v30.2c0,3.9-2.1,7.6-5.5,9.5L49.3,83.3L46.4,85l-1.7,1c-1.7,1-3.6,1.5-5.5,1.5h14.5
		c1.9,0,3.7-0.5,5.3-1.5l28.2-16.3c3.4-2,5.5-5.6,5.5-9.5V27.5C92.8,23.6,90.6,19.9,87.2,18z"/>
	<path class="st2" d="M54,43.7L54,43.7z"/>
</g>
</svg>
