<svg id="Layer_1" data-name="Layer 1" xmlns="http://www.w3.org/2000/svg" viewBox="0 0 216 216"><defs><style>.cls-1{fill:#22366a;}</style></defs><title>Artboard 10</title><path class="cls-1" d="M133.4,83.32a3.91,3.91,0,0,0,2.43-2.52,4,4,0,0,0-.1-2.61L126.9,54.3a2.07,2.07,0,0,1,1.22-2.66L152,42.81a3.91,3.91,0,0,0,0-7.41,4,4,0,0,0-2.65.05l-10.91,4h0l-5.83,2.13L123.46,45v0l-5.41,2a2.05,2.05,0,0,0-1.23,2.65l11.57,31.34A3.93,3.93,0,0,0,133.4,83.32Z"/><path class="cls-1" d="M124.38,46.37a4.56,4.56,0,0,0-2.17,8.85A59.22,59.22,0,1,1,108,53.52a4.55,4.55,0,0,0,.13-9.09H108a67.93,67.93,0,1,0,16.38,1.94Z"/></svg>