<svg id="Layer_1" data-name="Layer 1" xmlns="http://www.w3.org/2000/svg" viewBox="0 0 216 216"><defs><style>.cls-1{fill:#22366a}</style></defs><path class="cls-1" d="M133.4 83.32a3.91 3.91 0 002.43-2.52 4 4 0 00-.1-2.61L126.9 54.3a2.07 2.07 0 011.22-2.66L152 42.81a3.91 3.91 0 000-7.41 4 4 0 00-2.65.05l-10.91 4-5.83 2.13-9.15 3.42-5.41 2a2.05 2.05 0 00-1.23 2.65l11.57 31.34a3.93 3.93 0 005.01 2.33z"/><path class="cls-1" d="M124.38 46.37a4.56 4.56 0 00-2.17 8.85 59.22 59.22 0 11-14.21-1.7 4.55 4.55 0 00.13-9.09H108a67.93 67.93 0 1016.38 1.94z"/></svg>