<svg data-name="Layer 1" xmlns="http://www.w3.org/2000/svg" viewBox="0 0 216 216"><path d="M54.51 136.7a18.25 18.25 0 10-18.25-18.25 18.27 18.27 0 0018.25 18.25zm0-31a12.74 12.74 0 11-12.74 12.74 12.76 12.76 0 0112.74-12.73zm0 36.01a29.12 29.12 0 00-29.09 29.09 9 9 0 008.95 8.95h40.28a9 9 0 008.95-8.95 29.12 29.12 0 00-29.09-29.09zm20.14 32.53H34.37a3.45 3.45 0 01-3.45-3.44 23.59 23.59 0 1147.17 0 3.45 3.45 0 01-3.44 3.44zM108 102.66a18.25 18.25 0 10-18.25-18.24A18.27 18.27 0 00108 102.66zm29.09 34.1a29.09 29.09 0 00-58.18 0 9 9 0 009 9h40.28a9 9 0 008.9-9zm24.4-.06a18.25 18.25 0 10-18.24-18.25 18.27 18.27 0 0018.24 18.25zm0-31a12.74 12.74 0 11-12.74 12.74 12.75 12.75 0 0112.74-12.73zm0 36.01a29.12 29.12 0 00-29.09 29.09 9 9 0 008.95 8.95h40.28a9 9 0 009-8.95 29.12 29.12 0 00-29.14-29.09zm20.14 32.53h-40.28a3.45 3.45 0 01-3.44-3.44 23.59 23.59 0 1147.17 0 3.45 3.45 0 01-3.45 3.44zM108 56a2.75 2.75 0 002.75-2.75V39a2.75 2.75 0 10-5.5 0v14.27A2.75 2.75 0 00108 56zm42.45 17.6a2.75 2.75 0 001.94-.8l10.09-10.09a2.75 2.75 0 00-3.89-3.89L148.5 68.9a2.75 2.75 0 001.95 4.7zm-86.84-.81a2.75 2.75 0 003.89-3.89L57.42 58.82a2.75 2.75 0 00-3.89 3.89zm18.88-13.9a2.74 2.74 0 002.51 1.7 2.76 2.76 0 002.54-3.81l-5.43-13.17a2.75 2.75 0 10-5.11 2.1zm47.43 1.49a2.77 2.77 0 001.05.21 2.74 2.74 0 002.54-1.7L139 45.71a2.75 2.75 0 10-5.08-2.1l-5.46 13.17a2.75 2.75 0 001.46 3.6z" fill="#22366a"/></svg>