<svg id="Layer_1" data-name="Layer 1" xmlns="http://www.w3.org/2000/svg" viewBox="0 0 216 216"><defs><style>.cls-1{fill:#22366a;}</style></defs><title>Artboard 3 copy 2</title><path class="cls-1" d="M54.51,136.7a18.25,18.25,0,1,0-18.25-18.25A18.27,18.27,0,0,0,54.51,136.7Zm0-31a12.74,12.74,0,1,1-12.74,12.74A12.76,12.76,0,0,1,54.51,105.71Z"/><path class="cls-1" d="M54.51,141.71A29.12,29.12,0,0,0,25.42,170.8a9,9,0,0,0,8.95,8.95H74.65a9,9,0,0,0,8.95-8.95A29.12,29.12,0,0,0,54.51,141.71Zm20.14,32.53H34.37a3.45,3.45,0,0,1-3.45-3.44,23.59,23.59,0,1,1,47.17,0A3.45,3.45,0,0,1,74.65,174.24Z"/><path class="cls-1" d="M108,102.66A18.25,18.25,0,1,0,89.75,84.42,18.27,18.27,0,0,0,108,102.66Z"/><path class="cls-1" d="M137.09,136.76a29.09,29.09,0,0,0-58.18,0,9,9,0,0,0,9,9h40.28A9,9,0,0,0,137.09,136.76Z"/><path class="cls-1" d="M161.49,136.7a18.25,18.25,0,1,0-18.24-18.25A18.27,18.27,0,0,0,161.49,136.7Zm0-31a12.74,12.74,0,1,1-12.74,12.74A12.75,12.75,0,0,1,161.49,105.71Z"/><path class="cls-1" d="M161.49,141.71A29.12,29.12,0,0,0,132.4,170.8a9,9,0,0,0,8.95,8.95h40.28a9,9,0,0,0,9-8.95A29.12,29.12,0,0,0,161.49,141.71Zm20.14,32.53H141.35a3.45,3.45,0,0,1-3.44-3.44,23.59,23.59,0,1,1,47.17,0A3.45,3.45,0,0,1,181.63,174.24Z"/><path class="cls-1" d="M108,56a2.75,2.75,0,0,0,2.75-2.75V39a2.75,2.75,0,1,0-5.5,0V53.27A2.75,2.75,0,0,0,108,56Z"/><path class="cls-1" d="M150.45,73.6a2.75,2.75,0,0,0,1.94-.8l10.09-10.09a2.75,2.75,0,0,0-3.89-3.89L148.5,68.9a2.75,2.75,0,0,0,1.95,4.7Z"/><path class="cls-1" d="M63.61,72.79A2.75,2.75,0,0,0,67.5,68.9L57.42,58.82a2.75,2.75,0,0,0-3.89,3.89Z"/><path class="cls-1" d="M82.49,58.89A2.74,2.74,0,0,0,85,60.59a2.76,2.76,0,0,0,2.54-3.81L82.11,43.61A2.75,2.75,0,1,0,77,45.71Z"/><path class="cls-1" d="M129.92,60.38a2.77,2.77,0,0,0,1.05.21,2.74,2.74,0,0,0,2.54-1.7L139,45.71a2.75,2.75,0,1,0-5.08-2.1l-5.46,13.17A2.75,2.75,0,0,0,129.92,60.38Z"/></svg>