<svg id="Layer_1" data-name="Layer 1" xmlns="http://www.w3.org/2000/svg" viewBox="0 0 216 216"><defs><style>.cls-1{fill:#22366a}</style></defs><path class="cls-1" d="M89.16 44.6L34.6 69l61.54 36.81 12 74.5h13.34v-1l-12-.07 17.78-34-.89-.46-17.59 33.63L97.18 106l11.4-.13-.59-1L97 105l-7.7-59.37 11.3 1.77.13-1zM37.87 69.81l14.94 1.58.1-1-15.33-1.62 50.76-22.71 7.66 58.5zm85.14-4.02l.83.56 19.56-28.76 2.8 21.48.99-.13-2.88-22.1 11.37 2.06.18-.98-12.38-2.24-20.47 30.11z"/><path class="cls-1" d="M133.55 136.95l26.54-51.73-49.29 22.06 22.75 29.67zM108.5 105.1l-7.73-58.66-51.36 24.07 59.17 35.4-.14-.9.06.09zm1.63.84l51.08-22.88-58.9-35.24 7.82 58.12zm71.27-52.79l-24.07-14.42 2.92 20.85 21.15-6.43zm-44.34 13.71l24.54 14.69-5.74-43.61-18.8 28.92zm-15.58 113.46l17.41-33.86-28.84-37.7 11.43 71.56z"/></svg>