<svg id="Layer_1" data-name="Layer 1" xmlns="http://www.w3.org/2000/svg" viewBox="0 0 216 216"><defs><style>.cls-1{fill:#22366a;}</style></defs><title>Artboard 3 copy</title><path class="cls-1" d="M89.16,44.6,34.6,69l61.54,36.81,12,74.5h13.34v-1l-12-.07,17.78-34-.89-.46-17.59,33.63L97.18,106l11.4-.13-.59-1L97,105,89.3,45.63l11.3,1.77.13-1ZM37.87,69.81l14.94,1.58.1-1L37.58,68.77,88.34,46.06,96,104.56Z"/><polygon class="cls-1" points="123.01 65.79 123.84 66.35 143.4 37.59 146.2 59.07 147.19 58.94 144.31 36.84 155.68 38.9 155.86 37.92 143.48 35.68 123.01 65.79"/><polygon class="cls-1" points="133.55 136.95 160.09 85.22 110.8 107.28 133.55 136.95"/><polygon class="cls-1" points="108.5 105.1 100.77 46.44 49.41 70.51 108.58 105.91 108.44 105.01 108.5 105.1"/><polygon class="cls-1" points="110.13 105.94 161.21 83.06 102.31 47.82 110.13 105.94"/><polygon class="cls-1" points="181.4 53.15 157.33 38.73 160.25 59.58 181.4 53.15"/><polygon class="cls-1" points="137.06 66.86 161.6 81.55 155.86 37.94 137.06 66.86"/><polygon class="cls-1" points="121.48 180.32 138.89 146.46 110.05 108.76 121.48 180.32"/></svg>