<svg data-name="Layer 1" xmlns="http://www.w3.org/2000/svg" viewBox="0 0 216 216"><path d="M204.06 108L175 57.9a2.57 2.57 0 00-3.07-1l-18.43 7.9a2.25 2.25 0 00-1.23 2.93 3.72 3.72 0 00.21.39l28.6 55.88a2.55 2.55 0 003.52.8h.05l18.64-13.8a2.55 2.55 0 00.77-3zM66.68 64.8L48 56.88a2.37 2.37 0 00-3.06 1L15.87 108a2.54 2.54 0 00.76 3.06l18.9 14a2.56 2.56 0 003.5-.89.83.83 0 00.07-.13L68 68.12a2.56 2.56 0 00-1.32-3.32zm-36.56 49.84a3.83 3.83 0 114.11-3.64 3.84 3.84 0 01-4.11 3.63zm139.82 2.86l-6.05 5.29a.66.66 0 00-.28 0L159 120c-2.12-1.27-4.24-2.55-6.39-3.8l-39.05-23.78-.76-.48a11.63 11.63 0 00-4.09-1.84 12.77 12.77 0 00-9.8 2.55l-.74.46c-3.37 2-6.8 3.89-10.42 5.85l-6.82 3.78a3.11 3.11 0 01-4-.66 2.92 2.92 0 01-.34-3.83l9.73-11.78A24.15 24.15 0 01101.61 78c1.94-.26 3.83-.59 5.72-.9s3.63-.64 5.49-.89a48.6 48.6 0 0117.88 1.51c1.1.23 2.24.51 3.37.81A46.44 46.44 0 00142 80a13.72 13.72 0 008-1.81 2.55 2.55 0 00-2.3-4.54 8.69 8.69 0 01-5.31 1.25 42.45 42.45 0 01-7-1.38c-1.2-.31-2.4-.61-3.49-.84a52.86 52.86 0 00-19.59-1.59c-1.94.26-3.83.59-5.72.9s-3.62.63-5.57.89a30.14 30.14 0 00-13.86 5.9l-13.48-1.7a2.66 2.66 0 01-1.23-.36A2.55 2.55 0 0069.64 81a6.67 6.67 0 003.53 1.2l9.19 1.17-9.81 11.84a8 8 0 00.45 10.21 8.24 8.24 0 0010.22 2c2.3-1.3 4.57-2.56 6.84-3.78 3.5-1.92 7.12-3.91 10.6-6l.79-.51a8.54 8.54 0 016.13-2 7.1 7.1 0 012.32 1.15l.87.54 39.09 23.77c2.17 1.28 4.27 2.55 6.36 3.83l5.31 3.17v1.71a1.5 1.5 0 000 .3 5.87 5.87 0 01-1.33 5.11 5.6 5.6 0 01-4.59 1.92h-3.83l-25-16A2.55 2.55 0 00124 125l25.74 16.42.18 1.1a3.63 3.63 0 01-1.07 3 3.26 3.26 0 01-2.84 1L140 146l-17.88-10.21a2.56 2.56 0 10-2.55 4.44l17.59 10v.92a7 7 0 01-5.79 6.59l-3.38.67-15.06-8a2.55 2.55 0 00-2.4 4.49l13.23 7.2a8.32 8.32 0 01-5.47 2.56h-2.55l-14.71-3 1.76-2.73a9.2 9.2 0 00-2.68-12.72h-.08a9.89 9.89 0 00-5.1-1.48 9.39 9.39 0 00-4.17-8.73 9.35 9.35 0 00-4.8-1.4 9.34 9.34 0 00-4-9.53 9 9 0 00-12.53 2.19l-.24.37a9.53 9.53 0 00-2.94-3.15 8.91 8.91 0 00-12 1.79L50.08 120a2.55 2.55 0 00-4.23 2.83l5.31 8-2.76 4.29a9.2 9.2 0 002.68 12.72h.08a9 9 0 004.57 1.48 9.29 9.29 0 003.85 10.21 8.75 8.75 0 004.91 1.48 9.37 9.37 0 005.59-2 9.11 9.11 0 003.29 3.8 8.74 8.74 0 004.9 1.48 9.21 9.21 0 004.58-1.25 9.32 9.32 0 003.54 4.37A8.82 8.82 0 0091.3 169a9.38 9.38 0 006.61-2.84l17 3.6h3.5a13.74 13.74 0 0010.65-6.38l3.14-.56a12.12 12.12 0 0010-11.44l3.25.25a8.17 8.17 0 007-2.55 8.85 8.85 0 002.55-7.4h.69a10.64 10.64 0 008.61-3.68 10.85 10.85 0 002.55-9.14v-1.71l6.67-5.75a2.57 2.57 0 00-3.37-3.88zM52.48 137.93l5.11-8a4.08 4.08 0 012.55-1.86 3.75 3.75 0 01.82 0 4 4 0 012.25.69 4.45 4.45 0 011.86 2.55 3.89 3.89 0 01-.56 3l-5.11 7.89a4.42 4.42 0 01-2.68 1.86 3.91 3.91 0 01-2.81-.51 4.13 4.13 0 01-1.44-5.55zm9.73 17.44a4.14 4.14 0 01-1.3-5.7l12.28-19.2a4.08 4.08 0 012.56-1.86 3.66 3.66 0 01.81 0 4 4 0 012.25.69 4.13 4.13 0 011.3 5.69l-12.23 19.1a4.14 4.14 0 01-5.67 1.28zM79 159.22a3.9 3.9 0 01-3-.53 4.5 4.5 0 01-1.86-2.56 3.9 3.9 0 01.56-3l7.46-11.59a3.77 3.77 0 012.32-1.71 4.19 4.19 0 013.29.54 4.13 4.13 0 011.28 5.63l-7.38 11.46a4.47 4.47 0 01-2.67 1.76zm10 4.06a4.11 4.11 0 01-1.3-5.66l3.93-6.07a3.36 3.36 0 012.12-1.69 3.24 3.24 0 011-.13 5 5 0 012.56.72 4.1 4.1 0 011.27 5.64l-3.8 6a4.14 4.14 0 01-5.72 1.22z" fill="#22366a"/></svg>