<svg id="Layer_1" data-name="Layer 1" xmlns="http://www.w3.org/2000/svg" viewBox="0 0 216 216"><defs><style>.cls-1{fill:#22366a;}</style></defs><title>Artboard 3 copy 3</title><path class="cls-1" d="M204.06,108,175,57.9a2.57,2.57,0,0,0-3.07-1L153.5,64.8a2.25,2.25,0,0,0-1.23,2.93,3.72,3.72,0,0,0,.21.39L181.08,124a2.55,2.55,0,0,0,3.52.8l.05,0L203.29,111A2.55,2.55,0,0,0,204.06,108Z"/><path class="cls-1" d="M66.68,64.8,48,56.88a2.37,2.37,0,0,0-3.06,1L15.87,108a2.54,2.54,0,0,0,.76,3.06l18.9,14a2.56,2.56,0,0,0,3.5-.89.83.83,0,0,0,.07-.13L68,68.12A2.56,2.56,0,0,0,66.68,64.8ZM30.12,114.64A3.83,3.83,0,1,1,34.23,111a3.84,3.84,0,0,1-4.11,3.63Z"/><path class="cls-1" d="M169.94,117.5l-6.05,5.29h0a.66.66,0,0,0-.28,0L159,120c-2.12-1.27-4.24-2.55-6.39-3.8L113.56,92.42l-.76-.48a11.63,11.63,0,0,0-4.09-1.84,12.77,12.77,0,0,0-9.8,2.55l-.74.46c-3.37,2-6.8,3.89-10.42,5.85l-6.82,3.78a3.11,3.11,0,0,1-4-.66,2.92,2.92,0,0,1-.34-3.83l9.73-11.78A24.15,24.15,0,0,1,101.61,78c1.94-.26,3.83-.59,5.72-.9s3.63-.64,5.49-.89a48.6,48.6,0,0,1,17.88,1.51c1.1.23,2.24.51,3.37.81A46.44,46.44,0,0,0,142,80a13.72,13.72,0,0,0,8-1.81,2.55,2.55,0,0,0-2.3-4.54,8.69,8.69,0,0,1-5.31,1.25,42.45,42.45,0,0,1-7-1.38c-1.2-.31-2.4-.61-3.49-.84a52.86,52.86,0,0,0-19.59-1.59c-1.94.26-3.83.59-5.72.9s-3.62.63-5.57.89a30.14,30.14,0,0,0-13.86,5.9L73.68,77.08a2.66,2.66,0,0,1-1.23-.36A2.55,2.55,0,0,0,69.64,81a6.67,6.67,0,0,0,3.53,1.2l9.19,1.17h0L72.55,95.21A8,8,0,0,0,73,105.42a8.24,8.24,0,0,0,10.22,2c2.3-1.3,4.57-2.56,6.84-3.78,3.5-1.92,7.12-3.91,10.6-6l.79-.51a8.54,8.54,0,0,1,6.13-2,7.1,7.1,0,0,1,2.32,1.15l.87.54,39.09,23.77c2.17,1.28,4.27,2.55,6.36,3.83l5.31,3.17v1.71a1.5,1.5,0,0,0,0,.3,5.87,5.87,0,0,1-1.33,5.11,5.6,5.6,0,0,1-4.59,1.92h-3.83l-25-16A2.55,2.55,0,0,0,124,125l25.74,16.42.18,1.1a3.63,3.63,0,0,1-1.07,3,3.26,3.26,0,0,1-2.84,1L140,146l-17.88-10.21a2.56,2.56,0,1,0-2.55,4.44l17.59,10v.92a7,7,0,0,1-5.79,6.59l-3.38.67-15.06-8a2.55,2.55,0,0,0-2.4,4.49l13.23,7.2a8.32,8.32,0,0,1-5.47,2.56h-2.55l-14.71-3,1.76-2.73a9.2,9.2,0,0,0-2.68-12.72l-.08,0h0a9.89,9.89,0,0,0-5.1-1.48A9.39,9.39,0,0,0,90.76,136h0a9.35,9.35,0,0,0-4.8-1.4,9.34,9.34,0,0,0-4-9.53,9,9,0,0,0-12.53,2.19l-.24.37a9.53,9.53,0,0,0-2.94-3.15,8.91,8.91,0,0,0-12,1.79L50.08,120a2.55,2.55,0,0,0-4.23,2.83l5.31,8-2.76,4.29a9.2,9.2,0,0,0,2.68,12.72l.08,0a9,9,0,0,0,4.57,1.48,9.29,9.29,0,0,0,3.85,10.21,8.75,8.75,0,0,0,4.91,1.48,9.37,9.37,0,0,0,5.59-2,9.11,9.11,0,0,0,3.29,3.8,8.74,8.74,0,0,0,4.9,1.48,9.21,9.21,0,0,0,4.58-1.25,9.32,9.32,0,0,0,3.54,4.37A8.82,8.82,0,0,0,91.3,169a9.38,9.38,0,0,0,6.61-2.84l17,3.6h3.5a13.74,13.74,0,0,0,10.65-6.38l3.14-.56a12.12,12.12,0,0,0,10-11.44h0l3.25.25a8.17,8.17,0,0,0,7-2.55,8.85,8.85,0,0,0,2.55-7.4h.69A10.64,10.64,0,0,0,164.3,138a10.85,10.85,0,0,0,2.55-9.14v-1.71l6.67-5.75a2.57,2.57,0,0,0-3.37-3.88ZM52.48,137.93l5.11-8a4.08,4.08,0,0,1,2.55-1.86,3.75,3.75,0,0,1,.82,0,4,4,0,0,1,2.25.69,4.45,4.45,0,0,1,1.86,2.55,3.89,3.89,0,0,1-.56,3l-5.11,7.89a4.42,4.42,0,0,1-2.68,1.86,3.91,3.91,0,0,1-2.81-.51A4.13,4.13,0,0,1,52.47,138Zm9.73,17.44a4.14,4.14,0,0,1-1.3-5.7l12.28-19.2a4.08,4.08,0,0,1,2.56-1.86,3.66,3.66,0,0,1,.81,0,4,4,0,0,1,2.25.69,4.13,4.13,0,0,1,1.3,5.69l-12.23,19.1A4.14,4.14,0,0,1,62.21,155.37ZM79,159.22a3.9,3.9,0,0,1-3-.53,4.5,4.5,0,0,1-1.86-2.56,3.9,3.9,0,0,1,.56-3l7.46-11.59a3.77,3.77,0,0,1,2.32-1.71,4.19,4.19,0,0,1,3.29.54A4.13,4.13,0,0,1,89.05,146l-7.38,11.46A4.47,4.47,0,0,1,79,159.22Zm10,4.06a4.11,4.11,0,0,1-1.3-5.66h0l3.93-6.07a3.36,3.36,0,0,1,2.12-1.69,3.24,3.24,0,0,1,1-.13,5,5,0,0,1,2.56.72,4.1,4.1,0,0,1,1.27,5.64l-3.8,6a4.14,4.14,0,0,1-5.72,1.22Z"/></svg>