<svg id="Layer_1" data-name="Layer 1" xmlns="http://www.w3.org/2000/svg" viewBox="0 0 216 216"><defs><style>.cls-1{fill:#22366a}</style></defs><path class="cls-1" d="M183 49.64a.83.83 0 01.83.83v115.06a.83.83 0 01-.83.83H33a.83.83 0 01-.83-.83V50.47a.83.83 0 01.83-.83h150m0-7.3H33a8.12 8.12 0 00-8.12 8.13v115.06a8.12 8.12 0 008.12 8.13h150a8.12 8.12 0 008.12-8.13V50.47a8.12 8.12 0 00-8.12-8.13z"/><path class="cls-1" d="M25.81 74.69h164.87v7.29H25.81zm39.62-8.43H42.2a2.92 2.92 0 010-5.84h23.23a2.92 2.92 0 010 5.84zm17.98 83.6a3.61 3.61 0 01-2.64-1.14L58.17 125l22.68-22.78a3.65 3.65 0 115.15 5.1l-17.65 17.76 17.7 18.61a3.66 3.66 0 01-2.64 6.17zm50.39 0a3.66 3.66 0 01-2.64-6.17l17.7-18.61-17.67-17.76a3.65 3.65 0 115.17-5.14L159 125l-22.6 23.76a3.61 3.61 0 01-2.6 1.1zm-39.69 6.28a3.5 3.5 0 01-1.71-.43 3.63 3.63 0 01-1.5-4.93l28.83-54a3.65 3.65 0 116.43 3.44l-28.83 54a3.64 3.64 0 01-3.22 1.92z"/></svg>